<?xml version="1.0" encoding="utf-8"?>
<!-- Generator: Adobe Illustrator 15.0.2, SVG Export Plug-In . SVG Version: 6.00 Build 0)  -->
<!DOCTYPE svg PUBLIC "-//W3C//DTD SVG 1.1//EN" "http://www.w3.org/Graphics/SVG/1.1/DTD/svg11.dtd">
<svg version="1.1" id="Layer_1" xmlns="http://www.w3.org/2000/svg" xmlns:xlink="http://www.w3.org/1999/xlink" x="0px" y="0px"
	 width="287.98px" height="287.986px" viewBox="0 0 287.98 287.986" enable-background="new 0 0 287.98 287.986"
	 xml:space="preserve">
<circle fill="#FFFFFF" cx="144.003" cy="1" r="1"/>
<circle fill="#FFFFFF" cx="140.26" cy="1.049" r="1"/>
<circle fill="#FFFFFF" cx="136.519" cy="1.196" r="1"/>
<circle fill="#FFFFFF" cx="132.783" cy="1.44" r="1"/>
<circle fill="#FFFFFF" cx="129.055" cy="1.783" r="1"/>
<circle fill="#FFFFFF" cx="125.337" cy="2.223" r="1"/>
<circle fill="#FFFFFF" cx="121.632" cy="2.76" r="1"/>
<circle fill="#FFFFFF" cx="117.943" cy="3.394" r="1"/>
<circle fill="#FFFFFF" cx="114.272" cy="4.124" r="1"/>
<circle fill="#FFFFFF" cx="110.621" cy="4.95" r="1"/>
<circle fill="#FFFFFF" cx="106.992" cy="5.871" r="1"/>
<circle fill="#FFFFFF" cx="103.389" cy="6.887" r="1"/>
<circle fill="#FFFFFF" cx="99.814" cy="7.997" r="1"/>
<circle fill="#FFFFFF" cx="96.269" cy="9.2" r="1"/>
<circle fill="#FFFFFF" cx="92.757" cy="10.495" r="0.999"/>
<circle fill="#FFFFFF" cx="89.28" cy="11.882" r="1"/>
<circle fill="#FFFFFF" cx="85.84" cy="13.36" r="0.999"/>
<circle fill="#FFFFFF" cx="82.441" cy="14.927" r="1"/>
<circle fill="#FFFFFF" cx="79.083" cy="16.583" r="0.999"/>
<circle fill="#FFFFFF" cx="75.771" cy="18.326" r="0.999"/>
<circle fill="#FFFFFF" cx="72.504" cy="20.155" r="1"/>
<circle fill="#FFFFFF" cx="69.287" cy="22.069" r="1"/>
<circle fill="#FFFFFF" cx="66.12" cy="24.066" r="0.999"/>
<circle fill="#FFFFFF" cx="63.008" cy="26.146" r="0.999"/>
<path fill="#FFFFFF" d="M60.759,27.718c-0.326-0.448-0.95-0.547-1.394-0.221c-0.449,0.325-0.549,0.948-0.223,1.396
	c0.324,0.447,0.948,0.546,1.396,0.221C60.985,28.79,61.086,28.164,60.759,27.718z"/>
<path fill="#FFFFFF" d="M57.743,29.937c-0.338-0.439-0.964-0.522-1.398-0.185c-0.44,0.337-0.524,0.963-0.187,1.402
	c0.336,0.438,0.963,0.521,1.402,0.184C57.998,31.002,58.082,30.374,57.743,29.937z"/>
<path fill="#FFFFFF" d="M54.787,32.234c-0.35-0.431-0.978-0.497-1.403-0.148c-0.432,0.349-0.499,0.976-0.149,1.406
	c0.348,0.43,0.976,0.497,1.406,0.147C55.069,33.292,55.138,32.661,54.787,32.234z"/>
<path fill="#FFFFFF" d="M51.892,34.607c-0.36-0.421-0.989-0.471-1.406-0.112c-0.423,0.36-0.474,0.989-0.112,1.41
	c0.358,0.42,0.988,0.471,1.409,0.111C52.202,35.658,52.254,35.025,51.892,34.607z"/>
<path fill="#FFFFFF" d="M49.06,37.056c-0.371-0.412-1.001-0.445-1.408-0.075c-0.414,0.371-0.448,1.001-0.076,1.412
	c0.37,0.411,1.001,0.445,1.412,0.074C49.397,38.098,49.433,37.464,49.06,37.056z"/>
<path fill="#FFFFFF" d="M46.293,39.578c-0.382-0.402-1.013-0.418-1.41-0.038c-0.404,0.382-0.422,1.013-0.039,1.414
	c0.381,0.401,1.012,0.419,1.414,0.037C46.658,40.61,46.677,39.976,46.293,39.578z"/>
<path fill="#FFFFFF" d="M43.593,42.171c-0.392-0.392-1.022-0.392-1.41-0.001c-0.395,0.392-0.396,1.023-0.002,1.414
	c0.391,0.391,1.021,0.393,1.414,0C43.985,43.194,43.987,42.56,43.593,42.171z"/>
<path fill="#FFFFFF" d="M40.962,44.834c-0.402-0.381-1.032-0.365-1.41,0.036c-0.384,0.402-0.368,1.033,0.035,1.414
	c0.401,0.381,1.031,0.366,1.414-0.037C41.381,45.846,41.366,45.212,40.962,44.834z"/>
<path fill="#FFFFFF" d="M38.401,47.565c-0.412-0.37-1.041-0.338-1.408,0.073c-0.374,0.412-0.342,1.042,0.072,1.412
	c0.411,0.37,1.04,0.338,1.412-0.074C38.847,48.566,38.815,47.933,38.401,47.565z"/>
<path fill="#FFFFFF" d="M35.913,50.362c-0.422-0.359-1.05-0.31-1.405,0.11c-0.363,0.422-0.314,1.051,0.109,1.41
	c0.42,0.359,1.048,0.311,1.409-0.111C36.385,51.352,36.337,50.719,35.913,50.362z"/>
<path fill="#FFFFFF" d="M33.499,53.223c-0.431-0.348-1.058-0.282-1.402,0.147c-0.352,0.431-0.286,1.059,0.146,1.406
	c0.43,0.349,1.056,0.284,1.406-0.148C33.996,54.2,33.932,53.569,33.499,53.223z"/>
<path fill="#FFFFFF" d="M31.161,56.146c-0.44-0.336-1.065-0.254-1.398,0.184c-0.34,0.44-0.259,1.067,0.184,1.402
	c0.438,0.337,1.062,0.256,1.401-0.185C31.684,57.11,31.603,56.481,31.161,56.146z"/>
<path fill="#FFFFFF" d="M28.9,59.13c-0.449-0.324-1.072-0.226-1.394,0.22c-0.328,0.45-0.23,1.073,0.221,1.397
	c0.446,0.326,1.068,0.229,1.396-0.222C29.447,60.08,29.35,59.453,28.9,59.13z"/>
<path fill="#FFFFFF" d="M26.718,62.172c-0.457-0.312-1.077-0.198-1.387,0.256c-0.316,0.458-0.202,1.079,0.257,1.391
	c0.455,0.314,1.074,0.201,1.39-0.258C27.29,63.107,27.176,62.483,26.718,62.172z"/>
<path fill="#FFFFFF" d="M24.616,65.27c-0.465-0.3-1.082-0.17-1.38,0.292c-0.304,0.467-0.174,1.084,0.294,1.383
	c0.463,0.303,1.078,0.173,1.382-0.294C25.213,66.19,25.082,65.569,24.616,65.27z"/>
<path fill="#FFFFFF" d="M22.596,68.422c-0.472-0.288-1.086-0.142-1.371,0.329c-0.292,0.475-0.146,1.088,0.33,1.375
	c0.471,0.291,1.082,0.145,1.374-0.33C23.217,69.326,23.07,68.709,22.596,68.422z"/>
<path fill="#FFFFFF" d="M20.659,71.626c-0.479-0.276-1.09-0.113-1.362,0.364c-0.279,0.482-0.117,1.092,0.366,1.366
	c0.478,0.278,1.086,0.116,1.364-0.366C21.304,72.513,21.141,71.9,20.659,71.626z"/>
<path fill="#FFFFFF" d="M18.807,74.879c-0.486-0.263-1.092-0.084-1.352,0.4c-0.267,0.489-0.089,1.095,0.401,1.356
	c0.484,0.266,1.089,0.088,1.354-0.401C19.475,75.749,19.296,75.141,18.807,74.879z"/>
<path fill="#FFFFFF" d="M17.04,78.18c-0.493-0.25-1.094-0.056-1.341,0.435c-0.253,0.496-0.06,1.097,0.438,1.345
	c0.491,0.253,1.09,0.059,1.343-0.437C17.73,79.032,17.536,78.429,17.04,78.18z"/>
<path fill="#FFFFFF" d="M15.361,81.525c-0.5-0.237-1.096-0.027-1.329,0.47c-0.24,0.502-0.031,1.098,0.472,1.333
	c0.498,0.24,1.091,0.03,1.331-0.472C16.073,82.359,15.863,81.762,15.361,81.525z"/>
<path fill="#FFFFFF" d="M13.771,84.914c-0.507-0.224-1.097,0.002-1.316,0.505c-0.228,0.509-0.003,1.098,0.506,1.32
	c0.504,0.227,1.092,0.002,1.318-0.506C14.504,85.729,14.278,85.137,13.771,84.914z"/>
<path fill="#FFFFFF" d="M12.269,88.343c-0.513-0.21-1.096,0.031-1.303,0.539c-0.214,0.514,0.026,1.098,0.54,1.307
	c0.51,0.214,1.092-0.026,1.305-0.541C13.022,89.139,12.782,88.552,12.269,88.343z"/>
<path fill="#FFFFFF" d="M10.856,91.811c-0.518-0.197-1.094,0.06-1.288,0.573c-0.2,0.52,0.056,1.097,0.574,1.292
	c0.516,0.201,1.091-0.055,1.29-0.574C11.631,92.586,11.376,92.006,10.856,91.811z"/>
<path fill="#FFFFFF" d="M9.536,95.313c-0.522-0.183-1.092,0.088-1.272,0.606c-0.187,0.525,0.084,1.095,0.607,1.276
	c0.521,0.188,1.089-0.083,1.275-0.608C10.33,96.068,10.061,95.496,9.536,95.313z"/>
<path fill="#FFFFFF" d="M8.308,98.85c-0.527-0.169-1.089,0.117-1.256,0.639c-0.173,0.53,0.112,1.093,0.641,1.26
	c0.525,0.173,1.087-0.111,1.259-0.641C9.121,99.583,8.837,99.019,8.308,98.85z"/>
<path fill="#FFFFFF" d="M7.173,102.417c-0.532-0.155-1.086,0.145-1.239,0.672c-0.159,0.535,0.142,1.089,0.674,1.243
	c0.529,0.159,1.083-0.14,1.241-0.674C8.005,103.129,7.706,102.572,7.173,102.417z"/>
<path fill="#FFFFFF" d="M6.132,106.013c-0.536-0.141-1.082,0.174-1.222,0.704c-0.145,0.539,0.17,1.085,0.706,1.226
	c0.533,0.145,1.079-0.168,1.224-0.707C6.981,106.703,6.668,106.154,6.132,106.013z"/>
<path fill="#FFFFFF" d="M5.185,109.635c-0.539-0.127-1.077,0.202-1.203,0.736c-0.13,0.542,0.199,1.081,0.738,1.207
	c0.537,0.13,1.074-0.197,1.205-0.738C6.053,110.303,5.725,109.761,5.185,109.635z"/>
<path fill="#FFFFFF" d="M4.333,113.28c-0.543-0.113-1.071,0.23-1.184,0.768c-0.116,0.544,0.228,1.075,0.77,1.187
	c0.54,0.116,1.068-0.225,1.185-0.77C5.218,113.925,4.876,113.393,4.333,113.28z"/>
<path fill="#FFFFFF" d="M3.577,116.947c-0.546-0.099-1.065,0.258-1.164,0.798c-0.102,0.547,0.256,1.069,0.801,1.166
	c0.543,0.102,1.062-0.252,1.164-0.801C4.479,117.568,4.122,117.045,3.577,116.947z"/>
<path fill="#FFFFFF" d="M2.917,120.632c-0.548-0.084-1.058,0.286-1.143,0.829c-0.087,0.549,0.284,1.062,0.831,1.145
	c0.546,0.088,1.056-0.28,1.143-0.831C3.834,121.229,3.465,120.716,2.917,120.632z"/>
<path fill="#FFFFFF" d="M2.354,124.333c-0.55-0.07-1.05,0.313-1.12,0.858c-0.073,0.551,0.312,1.054,0.86,1.122
	c0.548,0.074,1.048-0.308,1.121-0.861C3.286,124.906,2.903,124.402,2.354,124.333z"/>
<path fill="#FFFFFF" d="M1.888,128.048c-0.552-0.056-1.041,0.34-1.098,0.887c-0.059,0.553,0.339,1.045,0.89,1.099
	c0.55,0.059,1.039-0.335,1.098-0.89C2.835,128.596,2.439,128.102,1.888,128.048z"/>
<path fill="#FFFFFF" d="M1.519,131.773c-0.553-0.042-1.031,0.368-1.073,0.916c-0.045,0.554,0.366,1.036,0.918,1.076
	c0.551,0.044,1.03-0.362,1.074-0.918C2.48,132.296,2.072,131.813,1.519,131.773z"/>
<path fill="#FFFFFF" d="M1.248,135.507c-0.555-0.028-1.022,0.395-1.05,0.943c-0.03,0.555,0.394,1.025,0.946,1.051
	c0.552,0.029,1.021-0.389,1.05-0.946C2.223,136.005,1.802,135.532,1.248,135.507z"/>
<path fill="#FFFFFF" d="M1.075,139.247c-0.556-0.013-1.013,0.421-1.025,0.97c-0.016,0.556,0.42,1.015,0.974,1.026
	c0.552,0.015,1.01-0.416,1.024-0.974C2.062,139.719,1.629,139.257,1.075,139.247z"/>
<path fill="#FFFFFF" d="M1,142.99c-0.556,0.001-1.001,0.448-1,0.997c-0.001,0.556,0.446,1.004,1,1.001c0.552,0,0.999-0.442,0.999-1
	C1.999,143.436,1.554,142.986,1,142.99z"/>
<path fill="#FFFFFF" d="M1.022,146.732c-0.556,0.017-0.988,0.475-0.974,1.023c0.014,0.556,0.473,0.992,1.026,0.975
	c0.551-0.015,0.986-0.469,0.972-1.026C2.033,147.152,1.576,146.715,1.022,146.732z"/>
<path fill="#FFFFFF" d="M1.144,150.475c-0.556,0.031-0.976,0.5-0.946,1.048c0.027,0.556,0.498,0.979,1.051,0.947
	c0.55-0.028,0.974-0.495,0.944-1.052C2.164,150.867,1.696,150.441,1.144,150.475z"/>
<path fill="#FFFFFF" d="M1.362,154.213c-0.555,0.045-0.963,0.523-0.919,1.07c0.042,0.556,0.523,0.967,1.075,0.92
	c0.549-0.042,0.961-0.52,0.917-1.076C2.393,154.577,1.914,154.164,1.362,154.213z"/>
<path fill="#FFFFFF" d="M1.679,157.943c-0.554,0.059-0.949,0.549-0.891,1.094c0.057,0.555,0.549,0.953,1.099,0.893
	c0.548-0.057,0.947-0.545,0.889-1.102C2.718,158.28,2.229,157.879,1.679,157.943z"/>
<path fill="#FFFFFF" d="M2.093,161.664c-0.552,0.073-0.935,0.574-0.862,1.117c0.071,0.553,0.574,0.938,1.122,0.863
	c0.546-0.072,0.933-0.57,0.859-1.125C3.141,161.974,2.641,161.585,2.093,161.664z"/>
<path fill="#FFFFFF" d="M2.604,165.373c-0.549,0.088-0.919,0.598-0.832,1.139c0.086,0.551,0.598,0.922,1.144,0.834
	c0.544-0.086,0.918-0.595,0.83-1.147C3.659,165.655,3.149,165.279,2.604,165.373z"/>
<path fill="#FFFFFF" d="M3.212,169.066c-0.547,0.103-0.903,0.622-0.803,1.16c0.101,0.549,0.622,0.906,1.166,0.805
	c0.541-0.101,0.901-0.619,0.799-1.17C4.274,169.321,3.755,168.959,3.212,169.066z"/>
<path fill="#FFFFFF" d="M3.916,172.743c-0.543,0.116-0.887,0.646-0.771,1.181c0.115,0.545,0.646,0.889,1.187,0.773
	c0.538-0.115,0.885-0.642,0.769-1.189C4.985,172.971,4.456,172.621,3.916,172.743z"/>
<path fill="#FFFFFF" d="M4.717,176.4c-0.54,0.131-0.87,0.669-0.741,1.199c0.13,0.543,0.669,0.873,1.207,0.743
	c0.535-0.13,0.868-0.665,0.737-1.21C5.791,176.6,5.253,176.264,4.717,176.4z"/>
<path fill="#FFFFFF" d="M5.612,180.035c-0.536,0.145-0.852,0.691-0.709,1.219c0.145,0.539,0.691,0.855,1.226,0.711
	c0.532-0.145,0.851-0.688,0.705-1.229C6.692,180.206,6.146,179.885,5.612,180.035z"/>
<path fill="#FFFFFF" d="M6.604,183.645c-0.532,0.159-0.834,0.715-0.678,1.238c0.159,0.535,0.714,0.836,1.244,0.678
	c0.528-0.158,0.833-0.709,0.673-1.246C7.688,183.787,7.132,183.48,6.604,183.645z"/>
<path fill="#FFFFFF" d="M7.688,187.228c-0.528,0.173-0.814,0.737-0.646,1.256c0.174,0.53,0.736,0.816,1.262,0.645
	c0.524-0.173,0.814-0.729,0.64-1.263C8.775,187.342,8.213,187.05,7.688,187.228z"/>
<path fill="#FFFFFF" d="M8.867,190.781c-0.523,0.187-0.795,0.758-0.612,1.271c0.188,0.525,0.757,0.797,1.278,0.611
	c0.519-0.186,0.794-0.75,0.605-1.279C9.956,190.867,9.387,190.59,8.867,190.781z"/>
<path fill="#FFFFFF" d="M10.138,194.303c-0.518,0.199-0.774,0.777-0.578,1.287c0.201,0.52,0.777,0.777,1.294,0.578
	c0.514-0.199,0.773-0.771,0.571-1.296C11.229,194.359,10.652,194.098,10.138,194.303z"/>
<path fill="#FFFFFF" d="M11.5,197.789c-0.512,0.213-0.753,0.798-0.544,1.303c0.215,0.514,0.798,0.756,1.309,0.544
	c0.509-0.212,0.753-0.792,0.537-1.312C12.594,197.817,12.01,197.57,11.5,197.789z"/>
<path fill="#FFFFFF" d="M12.954,201.238c-0.507,0.227-0.732,0.818-0.51,1.318c0.228,0.506,0.816,0.733,1.322,0.508
	c0.503-0.225,0.731-0.811,0.503-1.324C14.048,201.238,13.457,201.007,12.954,201.238z"/>
<path fill="#FFFFFF" d="M14.497,204.648c-0.5,0.24-0.71,0.838-0.475,1.332c0.241,0.5,0.835,0.711,1.335,0.473
	c0.497-0.238,0.71-0.83,0.469-1.336C15.591,204.621,14.994,204.404,14.497,204.648z"/>
<path fill="#FFFFFF" d="M16.129,208.018c-0.493,0.253-0.688,0.855-0.439,1.344c0.255,0.494,0.854,0.689,1.347,0.438
	c0.491-0.251,0.688-0.848,0.434-1.348C17.222,207.962,16.619,207.761,16.129,208.018z"/>
<path fill="#FFFFFF" d="M17.849,211.342c-0.486,0.267-0.665,0.874-0.404,1.355c0.268,0.488,0.871,0.668,1.358,0.402
	c0.483-0.264,0.665-0.865,0.397-1.359C18.939,211.258,18.332,211.072,17.849,211.342z"/>
<path fill="#FFFFFF" d="M19.654,214.621c-0.479,0.279-0.642,0.891-0.368,1.365c0.28,0.481,0.889,0.646,1.368,0.367
	c0.477-0.276,0.643-0.883,0.362-1.369C20.743,214.508,20.131,214.338,19.654,214.621z"/>
<path fill="#FFFFFF" d="M21.546,217.852c-0.472,0.292-0.618,0.908-0.333,1.375c0.293,0.473,0.905,0.621,1.378,0.33
	c0.469-0.287,0.619-0.898,0.326-1.377C22.631,217.71,22.015,217.557,21.546,217.852z"/>
<path fill="#FFFFFF" d="M23.521,221.031c-0.463,0.305-0.594,0.925-0.296,1.383c0.305,0.465,0.921,0.598,1.386,0.295
	c0.461-0.3,0.596-0.914,0.29-1.385C24.603,220.861,23.982,220.725,23.521,221.031z"/>
<path fill="#FFFFFF" d="M25.578,224.158c-0.455,0.317-0.569,0.939-0.26,1.391c0.317,0.457,0.937,0.573,1.394,0.258
	c0.453-0.312,0.571-0.928,0.254-1.391C26.655,223.961,26.032,223.84,25.578,224.158z"/>
<path fill="#FFFFFF" d="M27.717,227.23c-0.446,0.33-0.544,0.953-0.223,1.396c0.329,0.449,0.951,0.549,1.399,0.222
	c0.445-0.323,0.547-0.942,0.218-1.396C28.789,227.006,28.162,226.9,27.717,227.23z"/>
<path fill="#FFFFFF" d="M29.936,230.246c-0.438,0.342-0.519,0.967-0.187,1.401c0.341,0.44,0.966,0.524,1.405,0.185
	c0.437-0.334,0.521-0.956,0.181-1.4C31.001,229.994,30.372,229.904,29.936,230.246z"/>
<path fill="#FFFFFF" d="M32.232,233.203c-0.429,0.352-0.493,0.979-0.149,1.404c0.352,0.432,0.979,0.5,1.409,0.148
	c0.428-0.346,0.496-0.97,0.145-1.404C33.291,232.923,32.66,232.85,32.232,233.203z"/>
<path fill="#FFFFFF" d="M34.605,236.099c-0.419,0.362-0.467,0.99-0.112,1.407c0.363,0.422,0.991,0.475,1.413,0.111
	c0.418-0.356,0.471-0.982,0.107-1.408C35.656,235.791,35.024,235.734,34.605,236.099z"/>
<path fill="#FFFFFF" d="M37.054,238.932c-0.409,0.371-0.44,1.001-0.075,1.408c0.374,0.412,1.004,0.449,1.415,0.074
	c0.409-0.367,0.445-0.994,0.071-1.41C38.097,238.596,37.463,238.556,37.054,238.932z"/>
<path fill="#FFFFFF" d="M39.576,241.699c-0.4,0.381-0.415,1.012-0.039,1.409c0.385,0.401,1.016,0.423,1.417,0.037
	c0.398-0.378,0.419-1.006,0.034-1.411C40.609,241.336,39.975,241.312,39.576,241.699z"/>
<path fill="#FFFFFF" d="M42.17,244.399c-0.391,0.391-0.389,1.021-0.003,1.409c0.396,0.392,1.026,0.396,1.418,0
	c0.389-0.389,0.393-1.017-0.003-1.41C43.192,244.01,42.558,244.002,42.17,244.399z"/>
<path fill="#FFFFFF" d="M44.833,247.031c-0.38,0.399-0.362,1.03,0.034,1.408c0.405,0.381,1.036,0.369,1.417-0.037
	c0.379-0.399,0.366-1.027-0.039-1.409C45.845,246.614,45.21,246.623,44.833,247.031z"/>
<path fill="#FFFFFF" d="M47.564,249.592c-0.37,0.41-0.336,1.039,0.07,1.406c0.416,0.371,1.046,0.342,1.416-0.074
	c0.368-0.409,0.339-1.035-0.076-1.406C48.564,249.148,47.931,249.174,47.564,249.592z"/>
<path fill="#FFFFFF" d="M50.361,252.08c-0.359,0.42-0.309,1.047,0.107,1.403c0.426,0.36,1.055,0.314,1.413-0.111
	c0.358-0.419,0.312-1.043-0.112-1.403C51.35,251.61,50.717,251.652,50.361,252.08z"/>
<path fill="#FFFFFF" d="M53.223,254.494c-0.349,0.43-0.281,1.055,0.145,1.399c0.435,0.349,1.062,0.287,1.409-0.147
	c0.348-0.428,0.285-1.051-0.149-1.4C54.198,253.998,53.566,254.057,53.223,254.494z"/>
<path fill="#FFFFFF" d="M56.146,256.832c-0.338,0.439-0.254,1.062,0.181,1.396c0.444,0.336,1.069,0.258,1.405-0.186
	c0.336-0.436,0.258-1.058-0.187-1.396C57.108,256.311,56.479,256.386,56.146,256.832z"/>
<path fill="#FFFFFF" d="M59.13,259.093c-0.326,0.448-0.226,1.069,0.218,1.392c0.453,0.324,1.075,0.23,1.399-0.223
	c0.325-0.443,0.23-1.064-0.223-1.391C60.078,258.546,59.45,258.638,59.13,259.093z"/>
<path fill="#FFFFFF" d="M62.172,261.274c-0.314,0.456-0.197,1.075,0.254,1.386c0.462,0.312,1.081,0.203,1.394-0.26
	c0.313-0.451,0.202-1.07-0.259-1.383C63.105,260.703,62.48,260.812,62.172,261.274z"/>
<path fill="#FFFFFF" d="M65.27,263.377c-0.302,0.464-0.169,1.078,0.291,1.377c0.469,0.301,1.086,0.176,1.386-0.295
	c0.302-0.46,0.174-1.075-0.295-1.376C66.188,262.781,65.566,262.906,65.27,263.377z"/>
<path fill="#FFFFFF" d="M68.422,265.396c-0.29,0.473-0.141,1.083,0.327,1.369c0.476,0.288,1.09,0.146,1.377-0.33
	c0.289-0.469,0.146-1.08-0.331-1.369C69.324,264.777,68.706,264.918,68.422,265.396z"/>
<path fill="#FFFFFF" d="M71.626,267.333c-0.277,0.479-0.112,1.087,0.362,1.36c0.483,0.275,1.094,0.118,1.368-0.366
	c0.276-0.476,0.117-1.083-0.366-1.36C72.512,266.689,71.897,266.848,71.626,267.333z"/>
<path fill="#FFFFFF" d="M74.879,269.186c-0.264,0.486-0.084,1.089,0.398,1.35c0.49,0.264,1.096,0.09,1.357-0.402
	c0.265-0.482,0.089-1.084-0.401-1.35C75.748,268.52,75.138,268.693,74.879,269.186z"/>
<path fill="#FFFFFF" d="M78.18,270.952c-0.251,0.493-0.056,1.091,0.434,1.338c0.497,0.251,1.098,0.062,1.347-0.437
	c0.252-0.49,0.061-1.086-0.437-1.34C79.031,270.264,78.426,270.453,78.18,270.952z"/>
<path fill="#FFFFFF" d="M81.525,272.631c-0.237,0.5-0.026,1.093,0.469,1.326c0.503,0.238,1.099,0.033,1.334-0.471
	c0.239-0.497,0.032-1.088-0.471-1.328C82.358,271.922,81.759,272.126,81.525,272.631z"/>
<path fill="#FFFFFF" d="M84.914,274.223c-0.224,0.506,0.002,1.092,0.503,1.312c0.51,0.225,1.1,0.004,1.321-0.506
	c0.227-0.502,0.004-1.088-0.505-1.314C85.729,273.492,85.134,273.711,84.914,274.223z"/>
<path fill="#FFFFFF" d="M88.344,275.725c-0.211,0.512,0.03,1.092,0.537,1.299c0.515,0.211,1.099-0.024,1.308-0.54
	c0.213-0.508-0.025-1.088-0.54-1.302C89.138,274.973,88.55,275.207,88.344,275.725z"/>
<path fill="#FFFFFF" d="M91.812,277.137c-0.198,0.516,0.059,1.09,0.57,1.283c0.521,0.197,1.098-0.053,1.293-0.574
	c0.199-0.512-0.054-1.086-0.573-1.286C92.585,276.363,92.003,276.613,91.812,277.137z"/>
<path fill="#FFFFFF" d="M95.314,278.457c-0.185,0.521,0.087,1.088,0.604,1.268c0.525,0.184,1.097-0.081,1.278-0.607
	c0.186-0.518-0.083-1.084-0.607-1.271C96.067,277.663,95.492,277.929,95.314,278.457z"/>
<path fill="#FFFFFF" d="M98.852,279.686c-0.172,0.525,0.115,1.084,0.636,1.251c0.53,0.17,1.095-0.11,1.262-0.642
	c0.172-0.521-0.111-1.08-0.64-1.254C99.583,278.872,99.015,279.152,98.852,279.686z"/>
<path fill="#FFFFFF" d="M102.419,280.82c-0.158,0.53,0.144,1.081,0.668,1.234c0.535,0.156,1.092-0.139,1.245-0.674
	c0.158-0.526-0.14-1.078-0.673-1.238C103.129,279.988,102.568,280.283,102.419,280.82z"/>
<path fill="#FFFFFF" d="M106.015,281.861c-0.144,0.535,0.172,1.077,0.7,1.217c0.539,0.143,1.088-0.168,1.227-0.705
	c0.145-0.531-0.168-1.075-0.704-1.221C106.703,281.012,106.15,281.32,106.015,281.861z"/>
<path fill="#FFFFFF" d="M109.637,282.808c-0.13,0.539,0.2,1.073,0.731,1.198c0.543,0.129,1.083-0.195,1.208-0.736
	c0.131-0.535-0.196-1.07-0.736-1.201C110.303,281.941,109.758,282.264,109.637,282.808z"/>
<path fill="#FFFFFF" d="M113.282,283.659c-0.115,0.542,0.229,1.068,0.763,1.179c0.546,0.115,1.077-0.223,1.188-0.768
	c0.117-0.539-0.224-1.064-0.767-1.182C113.925,282.775,113.39,283.112,113.282,283.659z"/>
<path fill="#FFFFFF" d="M116.948,284.416c-0.101,0.545,0.257,1.061,0.794,1.157c0.549,0.101,1.071-0.25,1.167-0.798
	c0.104-0.542-0.252-1.059-0.798-1.162C117.568,283.515,117.042,283.865,116.948,284.416z"/>
<path fill="#FFFFFF" d="M120.634,285.076c-0.087,0.547,0.284,1.053,0.823,1.136c0.552,0.086,1.064-0.278,1.146-0.829
	c0.09-0.543-0.279-1.051-0.827-1.14C121.229,284.158,120.712,284.523,120.634,285.076z"/>
<path fill="#FFFFFF" d="M124.335,285.639c-0.072,0.549,0.312,1.046,0.853,1.115c0.554,0.07,1.057-0.307,1.124-0.859
	c0.075-0.546-0.308-1.043-0.857-1.117C124.906,284.707,124.398,285.086,124.335,285.639z"/>
<path fill="#FFFFFF" d="M128.049,286.104c-0.058,0.551,0.34,1.038,0.882,1.093c0.556,0.057,1.049-0.334,1.102-0.889
	c0.061-0.548-0.335-1.035-0.887-1.095C128.597,285.158,128.099,285.551,128.049,286.104z"/>
<path fill="#FFFFFF" d="M131.774,286.473c-0.043,0.553,0.366,1.029,0.91,1.07c0.557,0.042,1.039-0.361,1.077-0.918
	c0.047-0.549-0.361-1.025-0.914-1.071C132.297,285.513,131.81,285.918,131.774,286.473z"/>
<path fill="#FFFFFF" d="M135.508,286.744c-0.028,0.554,0.394,1.019,0.938,1.045c0.558,0.027,1.029-0.387,1.053-0.945
	c0.032-0.55-0.389-1.016-0.942-1.047C136.006,285.77,135.528,286.188,135.508,286.744z"/>
<path fill="#FFFFFF" d="M139.247,286.918c-0.014,0.555,0.42,1.007,0.966,1.02c0.558,0.012,1.019-0.413,1.027-0.973
	c0.019-0.551-0.415-1.006-0.969-1.021C139.72,285.93,139.253,286.361,139.247,286.918z"/>
<path fill="#FFFFFF" d="M142.99,286.994c0.001,0.555,0.446,0.994,0.992,0.992c0.558-0.002,1.007-0.439,1.001-0.998
	c0.004-0.551-0.44-0.995-0.995-0.996C143.437,285.993,142.981,286.438,142.99,286.994z"/>
<path fill="#FFFFFF" d="M146.733,286.972c0.016,0.554,0.473,0.981,1.019,0.966c0.557-0.018,0.995-0.467,0.975-1.023
	c-0.011-0.551-0.467-0.984-1.021-0.971C147.154,285.959,146.71,286.416,146.733,286.972z"/>
<path fill="#FFFFFF" d="M150.476,286.852c0.03,0.553,0.498,0.968,1.043,0.938c0.556-0.031,0.982-0.491,0.947-1.047
	c-0.025-0.551-0.492-0.973-1.047-0.945C150.869,285.828,150.438,286.297,150.476,286.852z"/>
<path fill="#FFFFFF" d="M154.213,286.633c0.044,0.553,0.522,0.954,1.067,0.91c0.555-0.047,0.969-0.517,0.92-1.071
	c-0.04-0.55-0.518-0.96-1.072-0.918C154.579,285.6,154.161,286.08,154.213,286.633z"/>
<path fill="#FFFFFF" d="M157.943,286.316c0.058,0.552,0.547,0.939,1.091,0.881c0.554-0.061,0.954-0.541,0.891-1.094
	c-0.054-0.549-0.541-0.946-1.095-0.891C158.282,285.273,157.877,285.766,157.943,286.316z"/>
<path fill="#FFFFFF" d="M161.664,285.902c0.072,0.551,0.571,0.926,1.113,0.853c0.552-0.075,0.939-0.565,0.861-1.117
	c-0.067-0.548-0.565-0.933-1.116-0.862C161.976,284.851,161.583,285.354,161.664,285.902z"/>
<path fill="#FFFFFF" d="M165.373,285.391c0.087,0.549,0.595,0.911,1.135,0.824c0.55-0.09,0.925-0.59,0.832-1.141
	c-0.082-0.545-0.59-0.917-1.139-0.832C165.656,284.331,165.277,284.844,165.373,285.391z"/>
<path fill="#FFFFFF" d="M169.066,284.782c0.102,0.547,0.619,0.896,1.156,0.794c0.548-0.104,0.91-0.613,0.803-1.162
	c-0.097-0.541-0.614-0.9-1.16-0.801C169.322,283.717,168.957,284.238,169.066,284.782z"/>
<path fill="#FFFFFF" d="M172.743,284.077c0.116,0.544,0.643,0.88,1.177,0.764c0.545-0.118,0.894-0.638,0.771-1.183
	c-0.11-0.538-0.638-0.884-1.18-0.77C172.971,283.006,172.619,283.537,172.743,284.077z"/>
<path fill="#FFFFFF" d="M176.4,283.277c0.131,0.541,0.665,0.861,1.196,0.731c0.541-0.132,0.877-0.66,0.74-1.202
	c-0.124-0.535-0.661-0.867-1.2-0.738C176.6,282.199,176.263,282.74,176.4,283.277z"/>
<path fill="#FFFFFF" d="M180.035,282.381c0.145,0.538,0.688,0.844,1.215,0.701c0.538-0.146,0.86-0.684,0.709-1.223
	c-0.138-0.531-0.684-0.85-1.22-0.706C180.206,281.298,179.883,281.848,180.035,282.381z"/>
<path fill="#FFFFFF" d="M183.646,281.39c0.158,0.534,0.709,0.825,1.232,0.669c0.535-0.16,0.842-0.705,0.677-1.24
	c-0.152-0.527-0.705-0.831-1.237-0.674C183.788,280.303,183.479,280.86,183.646,281.39z"/>
<path fill="#FFFFFF" d="M187.229,280.305c0.172,0.529,0.73,0.807,1.249,0.637c0.531-0.175,0.823-0.727,0.645-1.258
	c-0.166-0.523-0.727-0.812-1.254-0.641C187.343,279.215,187.048,279.78,187.229,280.305z"/>
<path fill="#FFFFFF" d="M190.782,279.127c0.186,0.523,0.751,0.787,1.265,0.604c0.526-0.189,0.805-0.748,0.611-1.275
	c-0.18-0.519-0.747-0.792-1.271-0.607C190.868,278.033,190.588,278.606,190.782,279.127z"/>
<path fill="#FFFFFF" d="M194.303,277.855c0.199,0.519,0.772,0.768,1.281,0.57c0.521-0.203,0.785-0.77,0.577-1.291
	c-0.192-0.514-0.768-0.771-1.286-0.573C194.36,276.76,194.096,277.341,194.303,277.855z"/>
<path fill="#FFFFFF" d="M197.789,276.492c0.213,0.514,0.793,0.748,1.297,0.537c0.515-0.217,0.764-0.789,0.542-1.306
	c-0.205-0.509-0.787-0.751-1.3-0.54C197.818,275.396,197.569,275.983,197.789,276.492z"/>
<path fill="#FFFFFF" d="M201.239,275.038c0.227,0.509,0.812,0.728,1.31,0.503c0.509-0.23,0.743-0.809,0.508-1.318
	c-0.218-0.504-0.806-0.73-1.312-0.506C201.239,273.941,201.006,274.536,201.239,275.038z"/>
<path fill="#FFFFFF" d="M204.65,273.494c0.239,0.504,0.83,0.707,1.321,0.469c0.503-0.243,0.723-0.828,0.474-1.331
	c-0.231-0.498-0.825-0.71-1.325-0.472C204.621,272.398,204.403,272.999,204.65,273.494z"/>
<path fill="#FFFFFF" d="M208.019,271.861c0.253,0.498,0.849,0.686,1.334,0.435c0.497-0.257,0.701-0.847,0.438-1.343
	c-0.244-0.492-0.844-0.688-1.337-0.438C207.961,270.768,207.76,271.374,208.019,271.861z"/>
<path fill="#FFFFFF" d="M211.344,270.142c0.266,0.491,0.866,0.663,1.345,0.399c0.49-0.27,0.68-0.865,0.403-1.354
	c-0.257-0.486-0.861-0.665-1.348-0.402C211.257,269.049,211.072,269.661,211.344,270.142z"/>
<path fill="#FFFFFF" d="M214.623,268.336c0.278,0.483,0.883,0.639,1.354,0.363c0.482-0.281,0.656-0.883,0.368-1.363
	c-0.27-0.479-0.879-0.643-1.358-0.367C214.507,267.245,214.339,267.862,214.623,268.336z"/>
<path fill="#FFFFFF" d="M217.854,266.444c0.291,0.476,0.899,0.616,1.364,0.327c0.474-0.293,0.632-0.899,0.331-1.371
	c-0.281-0.473-0.895-0.619-1.366-0.332C217.709,265.357,217.557,265.979,217.854,266.444z"/>
<path fill="#FFFFFF" d="M221.033,264.469c0.304,0.469,0.916,0.594,1.372,0.292c0.466-0.306,0.608-0.916,0.296-1.38
	c-0.294-0.465-0.91-0.596-1.374-0.297C220.86,263.386,220.725,264.012,221.033,264.469z"/>
<path fill="#FFFFFF" d="M224.161,262.411c0.315,0.46,0.93,0.569,1.378,0.255c0.458-0.316,0.585-0.931,0.26-1.387
	c-0.306-0.457-0.926-0.571-1.381-0.261C223.96,261.333,223.84,261.963,224.161,262.411z"/>
<path fill="#FFFFFF" d="M227.233,260.271c0.328,0.452,0.944,0.545,1.384,0.219c0.45-0.328,0.561-0.945,0.224-1.393
	c-0.317-0.449-0.94-0.547-1.387-0.225C227.004,259.199,226.9,259.832,227.233,260.271z"/>
<path fill="#FFFFFF" d="M230.249,258.053c0.339,0.443,0.958,0.52,1.389,0.183c0.441-0.34,0.536-0.96,0.188-1.398
	c-0.329-0.44-0.955-0.521-1.393-0.188C229.991,256.986,229.904,257.622,230.249,258.053z"/>
<path fill="#FFFFFF" d="M233.206,255.756c0.349,0.435,0.97,0.494,1.392,0.146c0.433-0.352,0.512-0.975,0.151-1.403
	c-0.341-0.433-0.969-0.497-1.397-0.151C232.92,254.696,232.85,255.334,233.206,255.756z"/>
<path fill="#FFFFFF" d="M236.101,253.383c0.36,0.424,0.982,0.468,1.396,0.109c0.423-0.362,0.486-0.987,0.114-1.406
	c-0.352-0.424-0.981-0.473-1.401-0.115C235.788,252.33,235.734,252.971,236.101,253.383z"/>
<path fill="#FFFFFF" d="M238.932,250.934c0.372,0.414,0.995,0.442,1.398,0.073c0.414-0.372,0.461-0.999,0.078-1.408
	c-0.363-0.415-0.994-0.447-1.404-0.079C238.593,249.891,238.556,250.532,238.932,250.934z"/>
<path fill="#FFFFFF" d="M241.698,248.412c0.383,0.404,1.007,0.416,1.4,0.036c0.404-0.383,0.435-1.011,0.041-1.409
	c-0.374-0.406-1.006-0.422-1.406-0.043C241.333,247.379,241.312,248.02,241.698,248.412z"/>
<path fill="#FFFFFF" d="M244.397,245.818c0.394,0.395,1.018,0.39,1.401,0c0.395-0.394,0.408-1.021,0.004-1.41
	c-0.385-0.396-1.017-0.395-1.407-0.006C244.006,244.796,244.003,245.436,244.397,245.818z"/>
<path fill="#FFFFFF" d="M247.029,243.155c0.402,0.384,1.026,0.362,1.4-0.036c0.384-0.404,0.381-1.033-0.033-1.41
	c-0.396-0.387-1.027-0.367-1.406,0.031C246.61,242.143,246.624,242.783,247.029,243.155z"/>
<path fill="#FFFFFF" d="M249.59,240.424c0.412,0.373,1.035,0.336,1.398-0.072c0.373-0.414,0.354-1.043-0.07-1.408
	c-0.405-0.377-1.036-0.341-1.404,0.068C249.145,239.422,249.175,240.062,249.59,240.424z"/>
<path fill="#FFFFFF" d="M252.078,237.627c0.422,0.361,1.043,0.309,1.396-0.109c0.362-0.424,0.327-1.053-0.107-1.405
	c-0.415-0.366-1.044-0.313-1.401,0.104C251.606,236.637,251.653,237.276,252.078,237.627z"/>
<path fill="#FFFFFF" d="M254.492,234.766c0.432,0.35,1.05,0.281,1.392-0.146c0.352-0.433,0.3-1.061-0.145-1.4
	c-0.423-0.355-1.051-0.287-1.397,0.14C253.994,233.787,254.059,234.426,254.492,234.766z"/>
<path fill="#FFFFFF" d="M256.83,231.842c0.441,0.338,1.058,0.254,1.388-0.183c0.34-0.442,0.271-1.068-0.181-1.396
	c-0.433-0.345-1.059-0.26-1.394,0.176C256.307,230.877,256.388,231.514,256.83,231.842z"/>
<path fill="#FFFFFF" d="M259.091,228.857c0.45,0.327,1.064,0.227,1.383-0.219c0.328-0.451,0.243-1.075-0.217-1.39
	c-0.442-0.333-1.065-0.231-1.39,0.212C258.542,227.906,258.64,228.541,259.091,228.857z"/>
<path fill="#FFFFFF" d="M261.272,225.815c0.459,0.315,1.07,0.198,1.377-0.255c0.316-0.46,0.215-1.08-0.253-1.383
	c-0.451-0.322-1.071-0.203-1.384,0.248C260.699,224.879,260.813,225.511,261.272,225.815z"/>
<path fill="#FFFFFF" d="M263.374,222.717c0.467,0.304,1.075,0.171,1.37-0.291c0.304-0.468,0.187-1.084-0.289-1.375
	c-0.46-0.311-1.076-0.175-1.377,0.285C262.776,221.796,262.907,222.425,263.374,222.717z"/>
<path fill="#FFFFFF" d="M265.394,219.564c0.476,0.291,1.079,0.143,1.362-0.326c0.291-0.477,0.158-1.088-0.325-1.367
	c-0.468-0.299-1.08-0.146-1.369,0.321S264.92,219.285,265.394,219.564z"/>
<path fill="#FFFFFF" d="M267.33,216.36c0.483,0.278,1.083,0.114,1.354-0.362c0.278-0.482,0.13-1.09-0.361-1.357
	c-0.476-0.286-1.083-0.118-1.36,0.357C266.686,215.473,266.849,216.094,267.33,216.36z"/>
<path fill="#FFFFFF" d="M269.182,213.106c0.49,0.266,1.086,0.086,1.344-0.396c0.266-0.489,0.102-1.093-0.396-1.349
	c-0.483-0.273-1.085-0.09-1.351,0.394C268.515,212.236,268.694,212.854,269.182,213.106z"/>
<path fill="#FFFFFF" d="M270.948,209.807c0.497,0.252,1.087,0.057,1.332-0.432c0.253-0.496,0.073-1.096-0.431-1.339
	c-0.49-0.261-1.087-0.062-1.34,0.429C270.258,208.953,270.454,209.566,270.948,209.807z"/>
<path fill="#FFFFFF" d="M272.627,206.461c0.504,0.239,1.089,0.028,1.321-0.467c0.239-0.502,0.044-1.098-0.466-1.327
	c-0.497-0.248-1.089-0.033-1.329,0.464C271.914,205.625,272.127,206.234,272.627,206.461z"/>
<path fill="#FFFFFF" d="M274.219,203.072c0.509,0.227,1.088,0,1.308-0.502c0.227-0.508,0.016-1.098-0.5-1.313
	c-0.503-0.235-1.089-0.005-1.316,0.498C273.483,202.256,273.713,202.859,274.219,203.072z"/>
<path fill="#FFFFFF" d="M275.721,199.643c0.515,0.214,1.088-0.027,1.294-0.535c0.214-0.514-0.013-1.098-0.534-1.3
	c-0.509-0.222-1.089,0.023-1.304,0.532C274.964,198.846,275.209,199.443,275.721,199.643z"/>
<path fill="#FFFFFF" d="M277.133,196.175c0.52,0.2,1.086-0.056,1.279-0.567c0.2-0.52-0.042-1.098-0.568-1.286
	c-0.515-0.208-1.088,0.052-1.289,0.566C276.355,195.398,276.616,195.989,277.133,196.175z"/>
<path fill="#FFFFFF" d="M278.453,192.672c0.524,0.186,1.084-0.084,1.265-0.601c0.187-0.524-0.071-1.097-0.603-1.271
	c-0.52-0.195-1.086,0.08-1.274,0.6C277.655,191.916,277.932,192.5,278.453,192.672z"/>
<path fill="#FFFFFF" d="M279.682,189.136c0.528,0.172,1.081-0.112,1.248-0.634c0.173-0.529-0.1-1.095-0.636-1.255
	c-0.523-0.182-1.083,0.108-1.258,0.634C278.864,188.4,279.155,188.978,279.682,189.136z"/>
<path fill="#FFFFFF" d="M280.816,185.568c0.533,0.158,1.078-0.141,1.231-0.666c0.159-0.534-0.128-1.092-0.668-1.238
	c-0.528-0.168-1.081,0.137-1.241,0.666C279.98,184.854,280.286,185.424,280.816,185.568z"/>
<path fill="#FFFFFF" d="M281.858,181.973c0.537,0.145,1.073-0.17,1.213-0.699c0.145-0.537-0.157-1.087-0.699-1.219
	c-0.533-0.154-1.078,0.164-1.225,0.698C281.003,181.281,281.324,181.842,281.858,181.973z"/>
<path fill="#FFFFFF" d="M282.805,178.352c0.541,0.129,1.069-0.198,1.194-0.731c0.131-0.54-0.186-1.083-0.73-1.2
	c-0.537-0.141-1.073,0.192-1.205,0.73C281.933,177.682,282.269,178.234,282.805,178.352z"/>
<path fill="#FFFFFF" d="M283.656,174.707c0.545,0.114,1.064-0.227,1.176-0.764c0.116-0.543-0.214-1.078-0.763-1.181
	c-0.54-0.126-1.067,0.22-1.186,0.762C282.767,174.059,283.117,174.604,283.656,174.707z"/>
<path fill="#FFFFFF" d="M284.412,171.041c0.549,0.1,1.058-0.255,1.155-0.795c0.102-0.545-0.242-1.072-0.793-1.16
	c-0.543-0.111-1.062,0.248-1.165,0.792C283.506,170.416,283.871,170.951,284.412,171.041z"/>
<path fill="#FFFFFF" d="M285.071,167.355c0.552,0.086,1.051-0.282,1.135-0.824c0.087-0.547-0.271-1.065-0.823-1.139
	c-0.545-0.098-1.055,0.275-1.144,0.822C284.149,166.756,284.529,167.28,285.071,167.355z"/>
<path fill="#FFFFFF" d="M285.634,163.654c0.555,0.072,1.044-0.309,1.113-0.854c0.073-0.549-0.298-1.059-0.853-1.117
	c-0.548-0.083-1.047,0.303-1.121,0.853C284.697,163.08,285.09,163.594,285.634,163.654z"/>
<path fill="#FFFFFF" d="M286.1,159.939c0.557,0.059,1.036-0.336,1.091-0.883c0.06-0.551-0.325-1.049-0.882-1.094
	c-0.55-0.068-1.039,0.33-1.099,0.881C285.148,159.391,285.555,159.894,286.1,159.939z"/>
<path fill="#FFFFFF" d="M286.469,156.214c0.558,0.044,1.027-0.363,1.067-0.91c0.044-0.553-0.353-1.04-0.91-1.071
	c-0.552-0.054-1.031,0.357-1.076,0.91C285.503,155.689,285.922,156.182,286.469,156.214z"/>
<path fill="#FFFFFF" d="M286.74,152.48c0.559,0.029,1.017-0.391,1.042-0.938c0.03-0.555-0.379-1.031-0.937-1.048
	c-0.554-0.04-1.022,0.384-1.053,0.938C285.761,151.981,286.192,152.463,286.74,152.48z"/>
<path fill="#FFFFFF" d="M286.914,148.741c0.558,0.015,1.005-0.417,1.017-0.965c0.016-0.556-0.406-1.021-0.964-1.022
	c-0.555-0.025-1.012,0.41-1.027,0.965C285.921,148.268,286.365,148.738,286.914,148.741z"/>
<path fill="#FFFFFF" d="M286.989,144.998c0.558,0,0.993-0.443,0.991-0.991c0.001-0.556-0.434-1.009-0.99-0.997
	c-0.556-0.011-1.001,0.436-1.002,0.991C285.984,144.551,286.44,145.01,286.989,144.998z"/>
<path fill="#FFFFFF" d="M286.967,141.254c0.557-0.015,0.98-0.469,0.965-1.016c-0.014-0.556-0.461-0.998-1.016-0.971
	c-0.556,0.003-0.989,0.462-0.977,1.018C285.95,140.833,286.418,141.281,286.967,141.254z"/>
<path fill="#FFFFFF" d="M286.847,137.513c0.555-0.029,0.967-0.495,0.938-1.042c-0.028-0.555-0.487-0.985-1.04-0.944
	c-0.556,0.018-0.978,0.488-0.95,1.043C285.818,137.119,286.298,137.554,286.847,137.513z"/>
<path fill="#FFFFFF" d="M286.628,133.776c0.554-0.044,0.953-0.52,0.91-1.065c-0.043-0.555-0.514-0.972-1.064-0.917
	c-0.555,0.033-0.965,0.514-0.923,1.067C285.59,133.409,286.081,133.831,286.628,133.776z"/>
<path fill="#FFFFFF" d="M286.312,130.046c0.553-0.059,0.938-0.545,0.882-1.089c-0.058-0.554-0.538-0.959-1.088-0.889
	c-0.554,0.047-0.951,0.539-0.895,1.091C285.264,129.706,285.767,130.115,286.312,130.046z"/>
<path fill="#FFFFFF" d="M285.897,126.325c0.552-0.073,0.924-0.569,0.854-1.112c-0.072-0.551-0.563-0.944-1.111-0.859
	c-0.552,0.062-0.937,0.564-0.865,1.114C284.841,126.013,285.354,126.408,285.897,126.325z"/>
<path fill="#FFFFFF" d="M285.387,122.617c0.55-0.087,0.908-0.593,0.824-1.134c-0.087-0.549-0.589-0.929-1.134-0.83
	c-0.551,0.076-0.922,0.588-0.836,1.137C284.321,122.332,284.846,122.714,285.387,122.617z"/>
<path fill="#FFFFFF" d="M284.778,118.923c0.548-0.102,0.893-0.617,0.795-1.155c-0.102-0.547-0.613-0.914-1.155-0.8
	c-0.549,0.09-0.906,0.612-0.806,1.158C283.707,118.666,284.24,119.034,284.778,118.923z"/>
<path fill="#FFFFFF" d="M284.073,115.246c0.545-0.116,0.877-0.64,0.765-1.175c-0.115-0.544-0.637-0.897-1.176-0.77
	c-0.546,0.104-0.89,0.636-0.774,1.179C282.996,115.017,283.539,115.372,284.073,115.246z"/>
<path fill="#FFFFFF" d="M283.273,111.589c0.54-0.131,0.858-0.663,0.732-1.195c-0.129-0.541-0.659-0.88-1.195-0.739
	c-0.543,0.119-0.873,0.659-0.743,1.198C282.189,111.388,282.742,111.729,283.273,111.589z"/>
<path fill="#FFFFFF" d="M282.378,107.955c0.536-0.145,0.841-0.685,0.701-1.214c-0.144-0.537-0.683-0.862-1.215-0.707
	c-0.54,0.133-0.856,0.681-0.712,1.217C281.288,107.782,281.85,108.107,282.378,107.955z"/>
<path fill="#FFFFFF" d="M281.387,104.345c0.532-0.159,0.823-0.707,0.67-1.232c-0.158-0.533-0.705-0.844-1.233-0.675
	c-0.536,0.147-0.838,0.704-0.68,1.235C280.294,104.201,280.862,104.511,281.387,104.345z"/>
<path fill="#FFFFFF" d="M280.302,100.762c0.527-0.173,0.804-0.729,0.637-1.25c-0.172-0.529-0.726-0.825-1.25-0.643
	c-0.532,0.161-0.819,0.725-0.647,1.252C279.206,100.646,279.782,100.942,280.302,100.762z"/>
<path fill="#FFFFFF" d="M279.123,97.209c0.523-0.187,0.785-0.749,0.604-1.266c-0.186-0.524-0.747-0.806-1.267-0.61
	c-0.528,0.175-0.801,0.747-0.615,1.269C278.024,97.122,278.608,97.402,279.123,97.209z"/>
<path fill="#FFFFFF" d="M277.852,93.688c0.519-0.2,0.766-0.77,0.571-1.281c-0.199-0.519-0.768-0.786-1.281-0.576
	c-0.523,0.188-0.781,0.767-0.582,1.284C276.752,93.63,277.343,93.895,277.852,93.688z"/>
<path fill="#FFFFFF" d="M276.489,90.201c0.513-0.214,0.745-0.789,0.537-1.295c-0.213-0.514-0.788-0.766-1.296-0.543
	c-0.519,0.202-0.762,0.787-0.549,1.299C275.388,90.172,275.985,90.421,276.489,90.201z"/>
<path fill="#FFFFFF" d="M275.035,86.751c0.508-0.227,0.725-0.808,0.504-1.309c-0.227-0.508-0.809-0.744-1.31-0.508
	c-0.514,0.216-0.741,0.807-0.515,1.312C273.934,86.75,274.537,86.984,275.035,86.751z"/>
<path fill="#FFFFFF" d="M273.492,83.34c0.502-0.24,0.703-0.827,0.47-1.322c-0.24-0.502-0.828-0.723-1.323-0.474
	c-0.508,0.229-0.72,0.826-0.48,1.326C272.391,83.369,273,83.586,273.492,83.34z"/>
<path fill="#FFFFFF" d="M271.859,79.971c0.496-0.253,0.682-0.845,0.436-1.333c-0.254-0.495-0.847-0.701-1.335-0.439
	c-0.502,0.242-0.698,0.844-0.445,1.337C270.76,80.028,271.374,80.23,271.859,79.971z"/>
<path fill="#FFFFFF" d="M270.14,76.646c0.489-0.266,0.659-0.863,0.4-1.344c-0.267-0.488-0.864-0.679-1.346-0.404
	c-0.496,0.255-0.677,0.862-0.411,1.349C269.042,76.732,269.661,76.917,270.14,76.646z"/>
<path fill="#FFFFFF" d="M268.334,73.367c0.481-0.279,0.636-0.88,0.364-1.354c-0.279-0.481-0.881-0.656-1.355-0.369
	c-0.489,0.269-0.654,0.88-0.376,1.359C267.238,73.481,267.862,73.65,268.334,73.367z"/>
<path fill="#FFFFFF" d="M266.442,70.136c0.475-0.291,0.612-0.896,0.329-1.363c-0.292-0.474-0.898-0.632-1.365-0.333
	c-0.481,0.281-0.631,0.897-0.34,1.369C265.351,70.279,265.979,70.432,266.442,70.136z"/>
<path fill="#FFFFFF" d="M264.467,66.957c0.468-0.304,0.589-0.912,0.294-1.372c-0.305-0.465-0.915-0.608-1.374-0.297
	c-0.475,0.294-0.607,0.913-0.304,1.377C263.379,67.127,264.011,67.264,264.467,66.957z"/>
<path fill="#FFFFFF" d="M262.408,63.83c0.46-0.316,0.565-0.928,0.258-1.379c-0.316-0.458-0.93-0.584-1.381-0.261
	c-0.467,0.306-0.583,0.928-0.268,1.385C261.326,64.029,261.961,64.149,262.408,63.83z"/>
<path fill="#FFFFFF" d="M260.269,60.757c0.452-0.328,0.542-0.942,0.222-1.386c-0.328-0.449-0.944-0.56-1.387-0.225
	c-0.458,0.318-0.559,0.943-0.23,1.392C259.193,60.985,259.83,61.088,260.269,60.757z"/>
<path fill="#FFFFFF" d="M258.05,57.742c0.443-0.34,0.518-0.956,0.186-1.391c-0.34-0.44-0.959-0.535-1.393-0.188
	c-0.449,0.331-0.533,0.958-0.194,1.397C256.98,57.998,257.62,58.084,258.05,57.742z"/>
<path fill="#FFFFFF" d="M255.753,54.786c0.435-0.352,0.493-0.969,0.149-1.396c-0.352-0.431-0.973-0.51-1.397-0.152
	c-0.44,0.343-0.508,0.972-0.158,1.402C254.69,55.07,255.332,55.14,255.753,54.786z"/>
<path fill="#FFFFFF" d="M253.38,51.891c0.425-0.362,0.467-0.981,0.112-1.399c-0.362-0.421-0.985-0.484-1.401-0.116
	c-0.431,0.354-0.481,0.985-0.121,1.406C252.325,52.203,252.968,52.256,253.38,51.891z"/>
<path fill="#FFFFFF" d="M250.931,49.059c0.416-0.373,0.441-0.993,0.076-1.401c-0.373-0.411-0.997-0.458-1.403-0.079
	c-0.422,0.365-0.456,0.998-0.085,1.409C249.886,49.398,250.529,49.435,250.931,49.059z"/>
<path fill="#FFFFFF" d="M248.408,46.292c0.406-0.383,0.416-1.003,0.04-1.403c-0.384-0.401-1.008-0.431-1.404-0.042
	c-0.412,0.376-0.43,1.01-0.048,1.41C247.374,46.659,248.018,46.678,248.408,46.292z"/>
<path fill="#FFFFFF" d="M245.814,43.592c0.396-0.394,0.39-1.014,0.004-1.403c-0.395-0.391-1.02-0.404-1.404-0.005
	c-0.402,0.387-0.403,1.021-0.012,1.411C244.79,43.986,245.435,43.989,245.814,43.592z"/>
<path fill="#FFFFFF" d="M243.151,40.961c0.386-0.404,0.363-1.024-0.033-1.403c-0.404-0.38-1.03-0.377-1.403,0.031
	c-0.392,0.397-0.376,1.031,0.025,1.41C242.137,41.382,242.782,41.368,243.151,40.961z"/>
<path fill="#FFFFFF" d="M240.42,38.401c0.376-0.415,0.337-1.033-0.069-1.402c-0.414-0.37-1.04-0.35-1.402,0.068
	c-0.381,0.407-0.349,1.04,0.062,1.409C239.417,38.848,240.062,38.817,240.42,38.401z"/>
<path fill="#FFFFFF" d="M237.623,35.914c0.365-0.424,0.31-1.042-0.106-1.399c-0.424-0.359-1.049-0.323-1.4,0.105
	c-0.369,0.416-0.32,1.049,0.099,1.407C236.632,36.386,237.275,36.338,237.623,35.914z"/>
<path fill="#FFFFFF" d="M234.762,33.5c0.354-0.434,0.282-1.05-0.143-1.396c-0.434-0.348-1.058-0.296-1.398,0.141
	c-0.356,0.425-0.292,1.057,0.136,1.403C233.783,33.998,234.425,33.934,234.762,33.5z"/>
<path fill="#FFFFFF" d="M231.838,31.162c0.344-0.443,0.255-1.057-0.179-1.392c-0.442-0.337-1.065-0.268-1.395,0.178
	c-0.345,0.435-0.264,1.064,0.172,1.399C230.873,31.686,231.513,31.604,231.838,31.162z"/>
<path fill="#FFFFFF" d="M228.854,28.901c0.332-0.452,0.227-1.063-0.216-1.386c-0.451-0.326-1.072-0.24-1.39,0.214
	c-0.332,0.443-0.234,1.071,0.209,1.395C227.903,29.45,228.541,29.352,228.854,28.901z"/>
<path fill="#FFFFFF" d="M225.812,26.719c0.32-0.46,0.199-1.068-0.252-1.38c-0.46-0.313-1.078-0.212-1.383,0.25
	c-0.32,0.452-0.207,1.078,0.244,1.389C224.876,27.293,225.511,27.178,225.812,26.719z"/>
<path fill="#FFFFFF" d="M222.715,24.617c0.308-0.468,0.171-1.073-0.288-1.373c-0.469-0.302-1.083-0.184-1.376,0.286
	c-0.309,0.46-0.179,1.083,0.281,1.382C221.793,25.216,222.425,25.084,222.715,24.617z"/>
<path fill="#FFFFFF" d="M219.562,22.597c0.296-0.476,0.143-1.077-0.324-1.364c-0.477-0.289-1.086-0.155-1.367,0.322
	c-0.297,0.468-0.15,1.087,0.317,1.374C218.656,23.22,219.285,23.072,219.562,22.597z"/>
<path fill="#FFFFFF" d="M216.358,20.661c0.283-0.483,0.114-1.081-0.359-1.355c-0.483-0.277-1.09-0.127-1.358,0.357
	c-0.284,0.476-0.122,1.09,0.354,1.365C215.47,21.307,216.094,21.143,216.358,20.661z"/>
<path fill="#FFFFFF" d="M213.104,18.809c0.271-0.49,0.086-1.083-0.394-1.345c-0.491-0.264-1.094-0.098-1.35,0.393
	c-0.271,0.483-0.093,1.093,0.39,1.355C212.234,19.479,212.853,19.297,213.104,18.809z"/>
<path fill="#FFFFFF" d="M209.805,17.042c0.256-0.497,0.057-1.085-0.429-1.334c-0.499-0.251-1.097-0.069-1.34,0.428
	c-0.259,0.49-0.064,1.095,0.425,1.345C208.952,17.735,209.565,17.538,209.805,17.042z"/>
<path fill="#FFFFFF" d="M206.459,15.363c0.243-0.503,0.028-1.086-0.464-1.323c-0.505-0.238-1.098-0.041-1.328,0.463
	c-0.246,0.497-0.036,1.097,0.46,1.333C205.625,16.078,206.232,15.864,206.459,15.363z"/>
<path fill="#FFFFFF" d="M203.07,13.772c0.23-0.51,0-1.086-0.498-1.311c-0.512-0.224-1.099-0.012-1.316,0.498
	c-0.232,0.502-0.007,1.098,0.495,1.32C202.255,14.508,202.857,14.279,203.07,13.772z"/>
<path fill="#FFFFFF" d="M199.642,12.271c0.217-0.516-0.029-1.086-0.533-1.297c-0.518-0.211-1.098,0.017-1.302,0.533
	c-0.22,0.508,0.021,1.097,0.528,1.307C198.845,13.027,199.441,12.783,199.642,12.271z"/>
<path fill="#FFFFFF" d="M196.174,10.859c0.203-0.521-0.058-1.084-0.566-1.282c-0.522-0.198-1.097,0.045-1.287,0.566
	c-0.207,0.513,0.05,1.096,0.562,1.292C195.398,11.637,195.987,11.377,196.174,10.859z"/>
<path fill="#FFFFFF" d="M192.67,9.539c0.19-0.526-0.086-1.083-0.599-1.267c-0.527-0.184-1.096,0.074-1.272,0.6
	c-0.193,0.518,0.079,1.095,0.597,1.277C191.916,10.337,192.498,10.062,192.67,9.539z"/>
<path fill="#FFFFFF" d="M189.134,8.311c0.177-0.531-0.114-1.08-0.632-1.251c-0.532-0.17-1.094,0.103-1.257,0.633
	c-0.18,0.523,0.108,1.092,0.63,1.261C188.4,9.128,188.976,8.838,189.134,8.311z"/>
<path fill="#FFFFFF" d="M185.566,7.175c0.163-0.535-0.143-1.076-0.664-1.234c-0.537-0.156-1.091,0.132-1.239,0.666
	c-0.166,0.527,0.137,1.089,0.661,1.244C184.854,8.012,185.422,7.707,185.566,7.175z"/>
<path fill="#FFFFFF" d="M181.971,6.134c0.148-0.54-0.171-1.073-0.696-1.216c-0.541-0.142-1.087,0.16-1.221,0.698
	c-0.152,0.532,0.165,1.085,0.693,1.226C181.28,6.989,181.84,6.669,181.971,6.134z"/>
<path fill="#FFFFFF" d="M178.349,5.187c0.134-0.543-0.198-1.067-0.728-1.197c-0.545-0.128-1.082,0.188-1.202,0.73
	c-0.139,0.535,0.193,1.08,0.726,1.208C177.682,6.06,178.231,5.725,178.349,5.187z"/>
<path fill="#FFFFFF" d="M174.703,4.335c0.12-0.547-0.226-1.062-0.759-1.178c-0.548-0.114-1.077,0.217-1.183,0.761
	c-0.125,0.539,0.222,1.075,0.757,1.188C174.06,5.226,174.601,4.876,174.703,4.335z"/>
<path fill="#FFFFFF" d="M171.037,3.58c0.105-0.55-0.254-1.056-0.79-1.157c-0.551-0.1-1.07,0.244-1.162,0.791
	c-0.11,0.542,0.25,1.069,0.787,1.168C170.416,4.486,170.948,4.123,171.037,3.58z"/>
<path fill="#FFFFFF" d="M167.352,2.92c0.092-0.552-0.281-1.049-0.819-1.136c-0.553-0.085-1.063,0.272-1.141,0.821
	c-0.097,0.544,0.277,1.062,0.817,1.147C166.755,3.843,167.277,3.465,167.352,2.92z"/>
<path fill="#FFFFFF" d="M163.651,2.357c0.077-0.555-0.309-1.042-0.85-1.114c-0.555-0.071-1.056,0.299-1.119,0.851
	c-0.082,0.547,0.306,1.054,0.848,1.125C163.078,3.295,163.591,2.904,163.651,2.357z"/>
<path fill="#FFFFFF" d="M159.938,1.891c0.062-0.557-0.336-1.034-0.879-1.092c-0.557-0.056-1.047,0.327-1.096,0.879
	c-0.068,0.549,0.332,1.046,0.876,1.103C159.389,2.843,159.891,2.439,159.938,1.891z"/>
<path fill="#FFFFFF" d="M156.212,1.522c0.048-0.559-0.363-1.024-0.907-1.068c-0.558-0.042-1.037,0.354-1.072,0.908
	c-0.054,0.55,0.359,1.037,0.905,1.08C155.688,2.489,156.18,2.072,156.212,1.522z"/>
<path fill="#FFFFFF" d="M152.478,1.251c0.033-0.56-0.389-1.015-0.934-1.044c-0.56-0.027-1.028,0.382-1.049,0.937
	c-0.039,0.55,0.387,1.027,0.934,1.055C151.98,2.231,152.46,1.801,152.478,1.251z"/>
<path fill="#FFFFFF" d="M148.738,1.079c0.019-0.561-0.415-1.004-0.961-1.02c-0.561-0.012-1.019,0.408-1.024,0.963
	c-0.024,0.551,0.414,1.016,0.961,1.03C148.267,2.07,148.735,1.628,148.738,1.079z"/>
<path fill="#FFFFFF" d="M144.995,1.003c0.004-0.561-0.441-0.993-0.987-0.994c-0.561,0.002-1.007,0.434-0.998,0.989
	c-0.01,0.552,0.44,1.005,0.986,1.005C144.55,2.007,145.007,1.553,144.995,1.003z"/>
</svg>
